<?xml version="1.0" encoding="UTF-8" standalone="no"?>
<!DOCTYPE svg PUBLIC "-//W3C//DTD SVG 1.1//EN" "http://www.w3.org/Graphics/SVG/1.1/DTD/svg11.dtd">
<svg version="1.1" xmlns:xl="http://www.w3.org/1999/xlink" xmlns="http://www.w3.org/2000/svg" xmlns:dc="http://purl.org/dc/elements/1.1/" viewBox="441 -53 2037 1416" width="2037" height="1416">
  <defs>
    <marker orient="auto" overflow="visible" markerUnits="strokeWidth" id="FilledArrow_Marker" stroke-linejoin="miter" stroke-miterlimit="10" viewBox="-1 -4 10 8" markerWidth="10" markerHeight="8" color="black">
      <g>
        <path d="M 8 0 L 0 -3 L 0 3 Z" fill="currentColor" stroke="currentColor" stroke-width="1"/>
      </g>
    </marker>
  </defs>
  <g id="bab_2_3_5" stroke-opacity="1" fill="none" stroke-dasharray="none" stroke="none" fill-opacity="1">
    <title>bab_2_3_5</title>
    <rect fill="white" x="441" y="-53" width="2037" height="1416"/>
    <g id="bab_2_3_5_Layer_1">
      <title>Layer 1</title>
      <g id="Graphic_55">
        <path d="M 1413.6118 428.5897 L 2284.8942 428.5897 L 2284.8942 890 L 1413.6118 890 Z" stroke="black" stroke-linecap="round" stroke-linejoin="round" stroke-dasharray="4.0,4.0" stroke-width="1"/>
        <text transform="translate(1418.6118 433.5897)" fill="black">
          <tspan font-family="Menlo" font-size="16" fill="black" x="0" y="15" xml:space="preserve">e_calc</tspan>
        </text>
      </g>
      <g id="Graphic_3">
        <path d="M 731 114 L 1266 114 L 1266 594 L 731 594 Z" stroke="black" stroke-linecap="round" stroke-linejoin="round" stroke-dasharray="4.0,4.0" stroke-width="1"/>
        <text transform="translate(736 119)" fill="black">
          <tspan font-family="Menlo" font-size="16" fill="black" x="0" y="15" xml:space="preserve">e_idle</tspan>
        </text>
      </g>
      <g id="Graphic_5">
        <rect x="857" y="160" width="268" height="91" fill="white"/>
        <rect x="857" y="160" width="268" height="91" stroke="gray" stroke-linecap="round" stroke-linejoin="round" stroke-width="1"/>
        <text transform="translate(862 196.276)" fill="black">
          <tspan font-family="Helvetica Neue" font-size="16" fill="black" x="61.888" y="15" xml:space="preserve">display calc_f1_val</tspan>
        </text>
      </g>
      <g id="Graphic_6">
        <path d="M 868.0638 317.26927 L 929.5638 287.8907 L 1052.5638 287.8907 L 1114.0638 317.26927 L 1052.5638 346.64784 L 929.5638 346.64784 Z" fill="white"/>
        <path d="M 868.0638 317.26927 L 929.5638 287.8907 L 1052.5638 287.8907 L 1114.0638 317.26927 L 1052.5638 346.64784 L 929.5638 346.64784 Z" stroke="gray" stroke-linecap="round" stroke-linejoin="round" stroke-width="1"/>
        <text transform="translate(934.5638 307.76927)" fill="black">
          <tspan font-family="Menlo" font-size="16" fill="black" x="8.3359375" y="15" xml:space="preserve">start == 1</tspan>
        </text>
      </g>
      <g id="Line_10">
        <path d="M 991 251 L 991 261 L 991.0319 269.44536 L 991.0638 272.9907 L 991.0638 277.9907" marker-end="url(#FilledArrow_Marker)" stroke="black" stroke-linecap="round" stroke-linejoin="round" stroke-width="1"/>
      </g>
      <g id="Line_11">
        <path d="M 1114.0638 317.26927 L 1323.541 317.26927 L 1323.541 76.85964 L 991 76.85964 L 991 150.1" marker-end="url(#FilledArrow_Marker)" stroke="black" stroke-linecap="round" stroke-linejoin="round" stroke-width="1"/>
      </g>
      <g id="Graphic_14">
        <path d="M 879.9553 392 L 1102.5553 392 C 1128.8857 392 1150.2553 421.568 1150.2553 458 C 1150.2553 494.432 1128.8857 524 1102.5553 524 L 879.9553 524 C 853.6249 524 832.2553 494.432 832.2553 458 C 832.2553 421.568 853.6249 392 879.9553 392 Z" fill="white"/>
        <path d="M 879.9553 392 L 1102.5553 392 C 1128.8857 392 1150.2553 421.568 1150.2553 458 C 1150.2553 494.432 1128.8857 524 1102.5553 524 L 879.9553 524 C 853.6249 524 832.2553 494.432 832.2553 458 C 832.2553 421.568 853.6249 392 879.9553 392 Z" stroke="gray" stroke-linecap="round" stroke-linejoin="round" stroke-width="1"/>
        <text transform="translate(869.0553 429.5)" fill="black">
          <tspan font-family="Menlo" font-size="16" fill="black" x="64.40312" y="15" xml:space="preserve">calc_n = i_n</tspan>
          <tspan font-family="Menlo" font-size="16" fill="black" x="49.953903" y="34" xml:space="preserve">calc_f0_val = 5</tspan>
          <tspan font-family="Menlo" font-size="16" fill="black" x="49.953903" y="53" xml:space="preserve">calc_f1_val = 5</tspan>
        </text>
      </g>
      <g id="Line_16">
        <path d="M 991.0638 346.64784 L 991.0638 356.64784 L 991.1596 369.3239 L 991.2553 377.1 L 991.2553 382.1" marker-end="url(#FilledArrow_Marker)" stroke="black" stroke-linecap="round" stroke-linejoin="round" stroke-width="1"/>
      </g>
      <g id="Graphic_17">
        <rect x="1124.8802" y="303.04528" width="19.184" height="28.447998" fill="white"/>
        <text transform="translate(1129.8802 308.04528)" fill="black">
          <tspan font-family="Helvetica Neue" font-size="16" fill="black" x="552447e-18" y="15" xml:space="preserve">F</tspan>
        </text>
      </g>
      <g id="Graphic_18">
        <rect x="981.4998" y="351.12577" width="19.184" height="18.447998" fill="white"/>
        <text transform="translate(986.4998 351.12577)" fill="black">
          <tspan font-family="Helvetica Neue" font-size="16" fill="black" x="552447e-18" y="15" xml:space="preserve">T</tspan>
        </text>
      </g>
      <g id="Line_22">
        <path d="M 1150.2553 458 L 1343.0327 458 L 1343.0327 541.3086 L 1525.9102 541.3086" marker-end="url(#FilledArrow_Marker)" stroke="black" stroke-linecap="round" stroke-linejoin="round" stroke-width="1"/>
      </g>
      <g id="Graphic_32">
        <path d="M 731 710.9987 L 1266 710.9987 L 1266 1190.9987 L 731 1190.9987 Z" stroke="black" stroke-linecap="round" stroke-linejoin="round" stroke-dasharray="4.0,4.0" stroke-width="1"/>
        <text transform="translate(736 715.9987)" fill="black">
          <tspan font-family="Menlo" font-size="16" fill="black" x="0" y="15" xml:space="preserve">e_done</tspan>
        </text>
      </g>
      <g id="Graphic_34">
        <rect x="1535.8102" y="495.8086" width="268" height="91" fill="white"/>
        <rect x="1535.8102" y="495.8086" width="268" height="91" stroke="gray" stroke-linecap="round" stroke-linejoin="round" stroke-width="1"/>
        <text transform="translate(1540.8102 532.0846)" fill="black">
          <tspan font-family="Helvetica Neue" font-size="16" fill="black" x="61.888" y="15" xml:space="preserve">display calc_f1_val</tspan>
        </text>
      </g>
      <g id="Graphic_35">
        <path d="M 1510.8102 653.4272 L 1590.3102 628.18054 L 1749.3102 628.18054 L 1828.8102 653.4272 L 1749.3102 678.6738 L 1590.3102 678.6738 Z" fill="white"/>
        <path d="M 1510.8102 653.4272 L 1590.3102 628.18054 L 1749.3102 628.18054 L 1828.8102 653.4272 L 1749.3102 678.6738 L 1590.3102 678.6738 Z" stroke="gray" stroke-linecap="round" stroke-linejoin="round" stroke-width="1"/>
        <text transform="translate(1595.3102 643.9272)" fill="black">
          <tspan font-family="Menlo" font-size="16" fill="black" x="21.51953" y="15" xml:space="preserve">calc_n == 0</tspan>
        </text>
      </g>
      <g id="Line_42">
        <line x1="1669.8102" y1="586.8086" x2="1669.8102" y2="618.28054" marker-end="url(#FilledArrow_Marker)" stroke="black" stroke-linecap="round" stroke-linejoin="round" stroke-width="1"/>
      </g>
      <g id="Graphic_48">
        <path d="M 1939.5704 623.71416 L 2171.997 623.71416 C 2199.4896 623.71416 2221.8026 636.87575 2221.8026 653.0927 C 2221.8026 669.3097 2199.4896 682.4713 2171.997 682.4713 L 1939.5704 682.4713 C 1912.0777 682.4713 1889.7648 669.3097 1889.7648 653.0927 C 1889.7648 636.87575 1912.0777 623.71416 1939.5704 623.71416 Z" fill="white"/>
        <path d="M 1939.5704 623.71416 L 2171.997 623.71416 C 2199.4896 623.71416 2221.8026 636.87575 2221.8026 653.0927 C 2221.8026 669.3097 2199.4896 682.4713 2171.997 682.4713 L 1939.5704 682.4713 C 1912.0777 682.4713 1889.7648 669.3097 1889.7648 653.0927 C 1889.7648 636.87575 1912.0777 623.71416 1939.5704 623.71416 Z" stroke="gray" stroke-linecap="round" stroke-linejoin="round" stroke-width="1"/>
        <text transform="translate(1927.9685 624.5927)" fill="black">
          <tspan font-family="Menlo" font-size="16" fill="black" x="2.5885544" y="15" xml:space="preserve">calc_f1_val += calc_f0_val</tspan>
          <tspan font-family="Menlo" font-size="16" fill="black" x="50.752617" y="34" xml:space="preserve">calc_f0_val += 4</tspan>
          <tspan font-family="Menlo" font-size="16" fill="black" x="89.28387" y="53" xml:space="preserve">calc_n—-</tspan>
        </text>
      </g>
      <g id="Graphic_56">
        <rect x="857" y="782.7711" width="268" height="91" fill="white"/>
        <rect x="857" y="782.7711" width="268" height="91" stroke="gray" stroke-linecap="round" stroke-linejoin="round" stroke-width="1"/>
        <text transform="translate(862 819.0471)" fill="black">
          <tspan font-family="Helvetica Neue" font-size="16" fill="black" x="61.888" y="15" xml:space="preserve">display calc_f1_val</tspan>
        </text>
      </g>
      <g id="Graphic_59">
        <path d="M 868 940.7524 L 929.5 911.3739 L 1052.5 911.3739 L 1114 940.7524 L 1052.5 970.131 L 929.5 970.131 Z" fill="white"/>
        <path d="M 868 940.7524 L 929.5 911.3739 L 1052.5 911.3739 L 1114 940.7524 L 1052.5 970.131 L 929.5 970.131 Z" stroke="gray" stroke-linecap="round" stroke-linejoin="round" stroke-width="1"/>
        <text transform="translate(934.5 931.2524)" fill="black">
          <tspan font-family="Menlo" font-size="16" fill="black" x="8.3359375" y="15" xml:space="preserve">clear == 1</tspan>
        </text>
      </g>
      <g id="Line_60">
        <line x1="991" y1="873.7711" x2="991" y2="901.4739" marker-end="url(#FilledArrow_Marker)" stroke="black" stroke-linecap="round" stroke-linejoin="round" stroke-width="1"/>
      </g>
      <g id="Line_61">
        <path d="M 1114 940.7524 L 1199.7676 940.7524 L 1199.7676 828.2711 L 1134.9 828.2711" marker-end="url(#FilledArrow_Marker)" stroke="black" stroke-linecap="round" stroke-linejoin="round" stroke-width="1"/>
      </g>
      <g id="Line_62">
        <path d="M 991 970.131 L 991 1118.6313 L 676.5032 1118.6313 L 676.5032 205.5 L 847.1 205.5" marker-end="url(#FilledArrow_Marker)" stroke="black" stroke-linecap="round" stroke-linejoin="round" stroke-width="1"/>
      </g>
      <g id="Line_65">
        <path d="M 1828.8102 653.4272 L 1838.8102 653.4272 L 1859.2875 653.25995 L 1874.8648 653.0927 L 1879.8648 653.0927" marker-end="url(#FilledArrow_Marker)" stroke="black" stroke-linecap="round" stroke-linejoin="round" stroke-width="1"/>
      </g>
      <g id="Line_66">
        <path d="M 2055.7837 623.71416 L 2055.7837 541.3086 L 1813.7102 541.3086" marker-end="url(#FilledArrow_Marker)" stroke="black" stroke-linecap="round" stroke-linejoin="round" stroke-width="1"/>
      </g>
      <g id="Graphic_68">
        <rect x="1842.6677" y="639.09334" width="19.184" height="28.447998" fill="white"/>
        <text transform="translate(1847.6677 644.09334)" fill="black">
          <tspan font-family="Helvetica Neue" font-size="16" fill="black" x="552447e-18" y="15" xml:space="preserve">F</tspan>
        </text>
      </g>
      <g id="Graphic_73">
        <path d="M 1553.597 750.58525 L 1786.0234 750.58525 C 1813.5161 750.58525 1835.829 763.7468 1835.829 779.9638 C 1835.829 796.1808 1813.5161 809.3424 1786.0234 809.3424 L 1553.597 809.3424 C 1526.1042 809.3424 1503.7913 796.1808 1503.7913 779.9638 C 1503.7913 763.7468 1526.1042 750.58525 1553.597 750.58525 Z" fill="white"/>
        <path d="M 1553.597 750.58525 L 1786.0234 750.58525 C 1813.5161 750.58525 1835.829 763.7468 1835.829 779.9638 C 1835.829 796.1808 1813.5161 809.3424 1786.0234 809.3424 L 1553.597 809.3424 C 1526.1042 809.3424 1503.7913 796.1808 1503.7913 779.9638 C 1503.7913 763.7468 1526.1042 750.58525 1553.597 750.58525 Z" stroke="gray" stroke-linecap="round" stroke-linejoin="round" stroke-width="1"/>
        <text transform="translate(1541.995 770.4638)" fill="black">
          <tspan font-family="Menlo" font-size="16" fill="black" x="21.85418" y="15" xml:space="preserve">calc_val = calc_f1_val</tspan>
        </text>
      </g>
      <g id="Line_74">
        <line x1="1669.8102" y1="678.6738" x2="1669.8102" y2="740.68525" marker-end="url(#FilledArrow_Marker)" stroke="black" stroke-linecap="round" stroke-linejoin="round" stroke-width="1"/>
      </g>
      <g id="Line_75">
        <path d="M 1503.7913 779.9638 L 1292.7438 779.9638 L 1292.7438 668.1167 L 991 668.1167 L 991 772.8711" marker-end="url(#FilledArrow_Marker)" stroke="black" stroke-linecap="round" stroke-linejoin="round" stroke-width="1"/>
      </g>
      <g id="Graphic_76">
        <rect x="1660.2182" y="691.21845" width="19.184" height="28.447998" fill="white"/>
        <text transform="translate(1665.2182 696.21845)" fill="black">
          <tspan font-family="Helvetica Neue" font-size="16" fill="black" x="552447e-18" y="15" xml:space="preserve">T</tspan>
        </text>
      </g>
      <g id="Graphic_77">
        <rect x="1125.144" y="926.5284" width="19.184" height="28.447998" fill="white"/>
        <text transform="translate(1130.144 931.5284)" fill="black">
          <tspan font-family="Helvetica Neue" font-size="16" fill="black" x="552447e-18" y="15" xml:space="preserve">F</tspan>
        </text>
      </g>
      <g id="Graphic_78">
        <rect x="981.408" y="976.2823" width="19.184" height="28.447998" fill="white"/>
        <text transform="translate(986.408 981.2823)" fill="black">
          <tspan font-family="Helvetica Neue" font-size="16" fill="black" x="552447e-18" y="15" xml:space="preserve">T</tspan>
        </text>
      </g>
      <g id="Graphic_115">
        <rect x="442" y="-52" width="2035" height="1414" stroke="gray" stroke-linecap="round" stroke-linejoin="round" stroke-width="1"/>
      </g>
    </g>
  </g>
</svg>
