<?xml version="1.0" encoding="UTF-8" standalone="no"?>
<!DOCTYPE svg PUBLIC "-//W3C//DTD SVG 1.1//EN" "http://www.w3.org/Graphics/SVG/1.1/DTD/svg11.dtd">
<svg version="1.1" xmlns:xl="http://www.w3.org/1999/xlink" xmlns="http://www.w3.org/2000/svg" xmlns:dc="http://purl.org/dc/elements/1.1/" viewBox="-304 -344 2037 1416" width="2037" height="1416">
  <defs>
    <marker orient="auto" overflow="visible" markerUnits="strokeWidth" id="FilledArrow_Marker" stroke-linejoin="miter" stroke-miterlimit="10" viewBox="-1 -4 10 8" markerWidth="10" markerHeight="8" color="black">
      <g>
        <path d="M 8 0 L 0 -3 L 0 3 Z" fill="currentColor" stroke="currentColor" stroke-width="1"/>
      </g>
    </marker>
  </defs>
  <g id="bab_1_2_2_1" stroke-opacity="1" fill="none" stroke-dasharray="none" stroke="none" fill-opacity="1">
    <title>bab_1_2_2_1</title>
    <rect fill="white" x="-304" y="-344" width="2037" height="1416"/>
    <g id="bab_1_2_2_1_Layer_1">
      <title>Layer 1</title>
      <g id="Graphic_32">
        <path d="M 567.6118 108.58973 L 1590.5 108.58973 L 1590.5 681.5 L 567.6118 681.5 Z" stroke="black" stroke-linecap="round" stroke-linejoin="round" stroke-dasharray="4.0,4.0" stroke-width="1"/>
        <text transform="translate(572.6118 113.58973)" fill="black">
          <tspan font-family="Menlo" font-size="16" fill="black" x="0" y="15" xml:space="preserve">e_calc</tspan>
        </text>
      </g>
      <g id="Graphic_30">
        <path d="M -115 -206 L 420 -206 L 420 274 L -115 274 Z" stroke="black" stroke-linecap="round" stroke-linejoin="round" stroke-dasharray="4.0,4.0" stroke-width="1"/>
        <text transform="translate(-110 -201)" fill="black">
          <tspan font-family="Menlo" font-size="16" fill="black" x="0" y="15" xml:space="preserve">e_idle</tspan>
        </text>
      </g>
      <g id="Graphic_29">
        <rect x="11" y="-160" width="268" height="91" fill="white"/>
        <rect x="11" y="-160" width="268" height="91" stroke="gray" stroke-linecap="round" stroke-linejoin="round" stroke-width="1"/>
        <text transform="translate(16 -123.724)" fill="black">
          <tspan font-family="Helvetica Neue" font-size="16" fill="black" x="61.888" y="15" xml:space="preserve">display calc_f2_val</tspan>
        </text>
      </g>
      <g id="Graphic_28">
        <path d="M 22.06383 -2.730725 L 83.56383 -32.109287 L 206.56383 -32.109287 L 268.06383 -2.730725 L 206.56383 26.647837 L 83.56383 26.647837 Z" fill="white"/>
        <path d="M 22.06383 -2.730725 L 83.56383 -32.109287 L 206.56383 -32.109287 L 268.06383 -2.730725 L 206.56383 26.647837 L 83.56383 26.647837 Z" stroke="gray" stroke-linecap="round" stroke-linejoin="round" stroke-width="1"/>
        <text transform="translate(88.56383 -12.230725)" fill="black">
          <tspan font-family="Menlo" font-size="16" fill="black" x="8.3359375" y="15" xml:space="preserve">start == 1</tspan>
        </text>
      </g>
      <g id="Line_27">
        <path d="M 145 -69 L 145 -59 L 145.03191 -50.554643 L 145.06383 -47.009287 L 145.06383 -42.009287" marker-end="url(#FilledArrow_Marker)" stroke="black" stroke-linecap="round" stroke-linejoin="round" stroke-width="1"/>
      </g>
      <g id="Line_26">
        <path d="M 268.06383 -2.730725 L 477.541 -2.730725 L 477.541 -243.14036 L 145 -243.14036 L 145 -169.9" marker-end="url(#FilledArrow_Marker)" stroke="black" stroke-linecap="round" stroke-linejoin="round" stroke-width="1"/>
      </g>
      <g id="Graphic_25">
        <path d="M 33.95532 72 L 256.55532 72 C 282.88572 72 304.25532 101.568 304.25532 138 C 304.25532 174.432 282.88572 204 256.55532 204 L 33.95532 204 C 7.624919 204 -13.744681 174.432 -13.744681 138 C -13.744681 101.568 7.624919 72 33.95532 72 Z" fill="white"/>
        <path d="M 33.95532 72 L 256.55532 72 C 282.88572 72 304.25532 101.568 304.25532 138 C 304.25532 174.432 282.88572 204 256.55532 204 L 33.95532 204 C 7.624919 204 -13.744681 174.432 -13.744681 138 C -13.744681 101.568 7.624919 72 33.95532 72 Z" stroke="gray" stroke-linecap="round" stroke-linejoin="round" stroke-width="1"/>
        <text transform="translate(23.05532 100)" fill="black">
          <tspan font-family="Menlo" font-size="16" fill="black" x="64.40312" y="15" xml:space="preserve">calc_n = i_n</tspan>
          <tspan font-family="Menlo" font-size="16" fill="black" x="45.137497" y="34" xml:space="preserve">calc_f0_val = 10</tspan>
          <tspan font-family="Menlo" font-size="16" fill="black" x="49.953903" y="53" xml:space="preserve">calc_f1_val = 5</tspan>
          <tspan font-family="Menlo" font-size="16" fill="black" x="49.953903" y="72" xml:space="preserve">calc_f2_val = 1</tspan>
        </text>
      </g>
      <g id="Line_24">
        <path d="M 145.06383 26.647837 L 145.06383 36.647837 L 145.15957 49.32392 L 145.25532 57.1 L 145.25532 62.1" marker-end="url(#FilledArrow_Marker)" stroke="black" stroke-linecap="round" stroke-linejoin="round" stroke-width="1"/>
      </g>
      <g id="Graphic_23">
        <rect x="278.8802" y="-16.954724" width="19.184" height="28.447998" fill="white"/>
        <text transform="translate(283.8802 -11.954724)" fill="black">
          <tspan font-family="Helvetica Neue" font-size="16" fill="black" x="552447e-18" y="15" xml:space="preserve">F</tspan>
        </text>
      </g>
      <g id="Graphic_22">
        <rect x="135.49979" y="31.125766" width="19.184" height="18.447998" fill="white"/>
        <text transform="translate(140.49979 31.125766)" fill="black">
          <tspan font-family="Helvetica Neue" font-size="16" fill="black" x="552447e-18" y="15" xml:space="preserve">T</tspan>
        </text>
      </g>
      <g id="Line_21">
        <path d="M 304.25532 138 L 497.03274 138 L 497.03274 221.3086 L 679.9102 221.3086" marker-end="url(#FilledArrow_Marker)" stroke="black" stroke-linecap="round" stroke-linejoin="round" stroke-width="1"/>
      </g>
      <g id="Graphic_20">
        <path d="M -115 390.99872 L 420 390.99872 L 420 870.9987 L -115 870.9987 Z" stroke="black" stroke-linecap="round" stroke-linejoin="round" stroke-dasharray="4.0,4.0" stroke-width="1"/>
        <text transform="translate(-110 395.9987)" fill="black">
          <tspan font-family="Menlo" font-size="16" fill="black" x="0" y="15" xml:space="preserve">e_done</tspan>
        </text>
      </g>
      <g id="Graphic_19">
        <rect x="689.8102" y="175.8086" width="268" height="91" fill="white"/>
        <rect x="689.8102" y="175.8086" width="268" height="91" stroke="gray" stroke-linecap="round" stroke-linejoin="round" stroke-width="1"/>
        <text transform="translate(694.8102 212.0846)" fill="black">
          <tspan font-family="Helvetica Neue" font-size="16" fill="black" x="61.888" y="15" xml:space="preserve">display calc_f2_val</tspan>
        </text>
      </g>
      <g id="Graphic_15">
        <rect x="11" y="462.7711" width="268" height="91" fill="white"/>
        <rect x="11" y="462.7711" width="268" height="91" stroke="gray" stroke-linecap="round" stroke-linejoin="round" stroke-width="1"/>
        <text transform="translate(16 499.0471)" fill="black">
          <tspan font-family="Helvetica Neue" font-size="16" fill="black" x="61.888" y="15" xml:space="preserve">display calc_f2_val</tspan>
        </text>
      </g>
      <g id="Graphic_14">
        <path d="M 22 620.7524 L 83.5 591.37385 L 206.5 591.37385 L 268 620.7524 L 206.5 650.131 L 83.5 650.131 Z" fill="white"/>
        <path d="M 22 620.7524 L 83.5 591.37385 L 206.5 591.37385 L 268 620.7524 L 206.5 650.131 L 83.5 650.131 Z" stroke="gray" stroke-linecap="round" stroke-linejoin="round" stroke-width="1"/>
        <text transform="translate(88.5 611.2524)" fill="black">
          <tspan font-family="Menlo" font-size="16" fill="black" x="8.3359375" y="15" xml:space="preserve">clear == 1</tspan>
        </text>
      </g>
      <g id="Line_13">
        <line x1="145" y1="553.7711" x2="145" y2="581.47385" marker-end="url(#FilledArrow_Marker)" stroke="black" stroke-linecap="round" stroke-linejoin="round" stroke-width="1"/>
      </g>
      <g id="Line_12">
        <path d="M 268 620.7524 L 353.7676 620.7524 L 353.7676 508.2711 L 288.9 508.2711" marker-end="url(#FilledArrow_Marker)" stroke="black" stroke-linecap="round" stroke-linejoin="round" stroke-width="1"/>
      </g>
      <g id="Line_11">
        <path d="M 145 650.131 L 145 798.6313 L -169.49684 798.6313 L -169.49684 -114.5 L 1.1 -114.5" marker-end="url(#FilledArrow_Marker)" stroke="black" stroke-linecap="round" stroke-linejoin="round" stroke-width="1"/>
      </g>
      <g id="Graphic_7">
        <path d="M 707.5969 555.56674 L 940.0234 555.56674 C 967.5161 555.56674 989.8291 568.7283 989.8291 584.9453 C 989.8291 601.1623 967.5161 614.32386 940.0234 614.32386 L 707.5969 614.32386 C 680.1042 614.32386 657.7913 601.1623 657.7913 584.9453 C 657.7913 568.7283 680.1042 555.56674 707.5969 555.56674 Z" fill="white"/>
        <path d="M 707.5969 555.56674 L 940.0234 555.56674 C 967.5161 555.56674 989.8291 568.7283 989.8291 584.9453 C 989.8291 601.1623 967.5161 614.32386 940.0234 614.32386 L 707.5969 614.32386 C 680.1042 614.32386 657.7913 601.1623 657.7913 584.9453 C 657.7913 568.7283 680.1042 555.56674 707.5969 555.56674 Z" stroke="gray" stroke-linecap="round" stroke-linejoin="round" stroke-width="1"/>
        <text transform="translate(695.99505 575.4453)" fill="black">
          <tspan font-family="Menlo" font-size="16" fill="black" x="21.85418" y="15" xml:space="preserve">calc_val = calc_f2_val</tspan>
        </text>
      </g>
      <g id="Line_5">
        <path d="M 657.7913 584.84764 L 446.74384 584.84764 L 446.74384 348.1167 L 145 348.1167 L 145 452.8711" marker-end="url(#FilledArrow_Marker)" stroke="black" stroke-linecap="round" stroke-linejoin="round" stroke-width="1"/>
      </g>
      <g id="Graphic_3">
        <rect x="279.14396" y="606.5284" width="19.184" height="28.447998" fill="white"/>
        <text transform="translate(284.14396 611.5284)" fill="black">
          <tspan font-family="Helvetica Neue" font-size="16" fill="black" x="552447e-18" y="15" xml:space="preserve">F</tspan>
        </text>
      </g>
      <g id="Graphic_2">
        <rect x="135.408" y="656.2823" width="19.184" height="28.447998" fill="white"/>
        <text transform="translate(140.408 661.2823)" fill="black">
          <tspan font-family="Helvetica Neue" font-size="16" fill="black" x="552447e-18" y="15" xml:space="preserve">T</tspan>
        </text>
      </g>
      <g id="Graphic_34">
        <path d="M 664.8102 360.3759 L 744.3102 335.12926 L 903.3102 335.12926 L 982.8102 360.3759 L 903.3102 385.62253 L 744.3102 385.62253 Z" fill="white"/>
        <path d="M 664.8102 360.3759 L 744.3102 335.12926 L 903.3102 335.12926 L 982.8102 360.3759 L 903.3102 385.62253 L 744.3102 385.62253 Z" stroke="gray" stroke-linecap="round" stroke-linejoin="round" stroke-width="1"/>
        <text transform="translate(749.3102 350.8759)" fill="black">
          <tspan font-family="Menlo" font-size="16" fill="black" x="21.51953" y="15" xml:space="preserve">calc_n == 0</tspan>
        </text>
      </g>
      <g id="Line_35">
        <line x1="823.8102" y1="266.8086" x2="823.8102" y2="325.22926" marker-end="url(#FilledArrow_Marker)" stroke="black" stroke-linecap="round" stroke-linejoin="round" stroke-width="1"/>
      </g>
      <g id="Graphic_38">
        <path d="M 1085.1543 311.47094 L 1317.5807 311.47094 C 1345.0735 311.47094 1367.3864 333.38036 1367.3864 360.3759 C 1367.3864 387.37143 1345.0735 409.28085 1317.5807 409.28085 L 1085.1543 409.28085 C 1057.6616 409.28085 1035.3486 387.37143 1035.3486 360.3759 C 1035.3486 333.38036 1057.6616 311.47094 1085.1543 311.47094 Z" fill="white"/>
        <path d="M 1085.1543 311.47094 L 1317.5807 311.47094 C 1345.0735 311.47094 1367.3864 333.38036 1367.3864 360.3759 C 1367.3864 387.37143 1345.0735 409.28085 1317.5807 409.28085 L 1085.1543 409.28085 C 1057.6616 409.28085 1035.3486 387.37143 1035.3486 360.3759 C 1035.3486 333.38036 1057.6616 311.47094 1085.1543 311.47094 Z" stroke="gray" stroke-linecap="round" stroke-linejoin="round" stroke-width="1"/>
        <text transform="translate(1073.5524 322.3759)" fill="black">
          <tspan font-family="Menlo" font-size="16" fill="black" x="2.5885544" y="15" xml:space="preserve">calc_f2_val += calc_f1_val</tspan>
          <tspan font-family="Menlo" font-size="16" fill="black" x="2.5885544" y="34" xml:space="preserve">calc_f1_val += calc_f0_val</tspan>
          <tspan font-family="Menlo" font-size="16" fill="black" x="50.752617" y="53" xml:space="preserve">calc_f0_val += 6</tspan>
          <tspan font-family="Menlo" font-size="16" fill="black" x="89.28387" y="72" xml:space="preserve">calc_n—-</tspan>
        </text>
      </g>
      <g id="Line_39">
        <line x1="982.8102" y1="360.3759" x2="1025.4486" y2="360.3759" marker-end="url(#FilledArrow_Marker)" stroke="black" stroke-linecap="round" stroke-linejoin="round" stroke-width="1"/>
      </g>
      <g id="Graphic_42">
        <rect x="995.729" y="346.1519" width="19.184" height="28.447998" fill="white"/>
        <text transform="translate(1000.729 351.1519)" fill="black">
          <tspan font-family="Helvetica Neue" font-size="16" fill="black" x="552447e-18" y="15" xml:space="preserve">F</tspan>
        </text>
      </g>
      <g id="Line_43">
        <line x1="823.8102" y1="385.62253" x2="823.8102" y2="545.66674" marker-end="url(#FilledArrow_Marker)" stroke="black" stroke-linecap="round" stroke-linejoin="round" stroke-width="1"/>
      </g>
      <g id="Line_44">
        <path d="M 1201.3675 311.47094 L 1201.3675 221.3086 L 967.7102 221.3086" marker-end="url(#FilledArrow_Marker)" stroke="black" stroke-linecap="round" stroke-linejoin="round" stroke-width="1"/>
      </g>
      <g id="Graphic_45">
        <rect x="814.2182" y="417.85476" width="19.184" height="28.447998" fill="white"/>
        <text transform="translate(819.2182 422.85476)" fill="black">
          <tspan font-family="Helvetica Neue" font-size="16" fill="black" x="552447e-18" y="15" xml:space="preserve">T</tspan>
        </text>
      </g>
      <g id="Graphic_47">
        <rect x="-303.16215" y="-342.59544" width="2035" height="1414" stroke="gray" stroke-linecap="round" stroke-linejoin="round" stroke-width="1"/>
      </g>
    </g>
  </g>
</svg>
