<?xml version="1.0" encoding="UTF-8" standalone="no"?>
<!DOCTYPE svg PUBLIC "-//W3C//DTD SVG 1.1//EN" "http://www.w3.org/Graphics/SVG/1.1/DTD/svg11.dtd">
<svg xmlns="http://www.w3.org/2000/svg" version="1.1" xmlns:xl="http://www.w3.org/1999/xlink" xmlns:dc="http://purl.org/dc/elements/1.1/" viewBox="-319 -184 1869 1570" width="1869" height="1570">
  <defs>
    <marker orient="auto" overflow="visible" markerUnits="strokeWidth" id="FilledArrow_Marker" stroke-linejoin="miter" stroke-miterlimit="10" viewBox="-1 -4 10 8" markerWidth="10" markerHeight="8" color="black">
      <g>
        <path d="M 8 0 L 0 -3 L 0 3 Z" fill="currentColor" stroke="currentColor" stroke-width="1"/>
      </g>
    </marker>
    <marker orient="auto" overflow="visible" markerUnits="strokeWidth" id="FilledArrow_Marker_2" stroke-linejoin="miter" stroke-miterlimit="10" viewBox="-1 -4 10 8" markerWidth="10" markerHeight="8" color="black">
      <g>
        <path d="M 8 0 L 0 -3 L 0 3 Z" fill="currentColor" stroke="currentColor" stroke-width="1"/>
      </g>
    </marker>
  </defs>
  <g id="ASMD_Chart" fill="none" stroke="none" stroke-opacity="1" stroke-dasharray="none" fill-opacity="1">
    <title>ASMD Chart</title>
    <rect fill="white" x="-319" y="-184" width="1869" height="1570"/>
    <g id="ASMD_Chart_Layer_1">
      <title>Layer 1</title>
      <g id="Group_143">
        <title>ANY STATE</title>
        <g id="Graphic_18">
          <path d="M 239.47852 -69.76953 L 493.6289 -69.76953 L 493.6289 72.83594 L 239.47852 72.83594 Z" stroke="black" stroke-linecap="round" stroke-linejoin="round" stroke-dasharray="4.0,4.0" stroke-width="1"/>
          <text transform="translate(244.47852 -64.76953)" fill="black">
            <tspan font-family="Menlo" font-size="16" fill="black" x="0" y="15" xml:space="preserve">ANY STATE</tspan>
          </text>
        </g>
        <g id="Graphic_19">
          <path d="M 287.2285 12.011719 L 326.8911 -11.015625 L 406.2163 -11.015625 L 445.8789 12.011719 L 406.2163 35.039062 L 326.8911 35.039062 Z" fill="white"/>
          <path d="M 287.2285 12.011719 L 326.8911 -11.015625 L 406.2163 -11.015625 L 445.8789 12.011719 L 406.2163 35.039062 L 326.8911 35.039062 Z" stroke="black" stroke-linecap="round" stroke-linejoin="round" stroke-width="1"/>
          <text transform="translate(331.8911 4.0117188)" fill="black">
            <tspan font-family="Menlo" font-size="14" fill="black" x=".9477539" y="13" xml:space="preserve">clear==1</tspan>
          </text>
        </g>
        <g id="Graphic_253">
          <path d="M -318 -183 L 1549 -183 L 1549 1385 L -318 1385 Z" stroke="black" stroke-linecap="round" stroke-linejoin="round" stroke-dasharray="4.0,4.0" stroke-width="1"/>
        </g>
      </g>
      <g id="Group_144">
        <title>e_idle</title>
        <g id="Graphic_6">
          <title>Rectangle</title>
          <path d="M 149.2501 133.06753 L 601.7501 133.06753 L 601.7501 585.5675 L 149.2501 585.5675 Z" stroke="black" stroke-linecap="round" stroke-linejoin="round" stroke-dasharray="4.0,4.0" stroke-width="1"/>
          <text transform="translate(154.2501 138.06753)" fill="black">
            <tspan font-family="Menlo" font-size="16" fill="black" x="0" y="15" xml:space="preserve">e_idle</tspan>
          </text>
        </g>
        <g id="Graphic_11">
          <rect x="272.7501" y="192.56753" width="188" height="59" fill="white"/>
          <rect x="272.7501" y="192.56753" width="188" height="59" stroke="black" stroke-linecap="round" stroke-linejoin="round" stroke-width="1"/>
          <text transform="translate(277.7501 203.06753)" fill="black">
            <tspan font-family="Menlo" font-size="16" fill="black" x="45.652344" y="15" xml:space="preserve">disp=“HI”</tspan>
            <tspan font-family="Menlo" font-size="16" fill="black" x="64.91797" y="34" xml:space="preserve">led=0</tspan>
          </text>
        </g>
        <g id="Graphic_38">
          <path d="M 267.28235 313.56753 L 316.96692 276.06753 L 416.33606 276.06753 L 466.02063 313.56753 L 416.33606 351.06753 L 316.96692 351.06753 Z" fill="white"/>
          <path d="M 267.28235 313.56753 L 316.96692 276.06753 L 416.33606 276.06753 L 466.02063 313.56753 L 416.33606 351.06753 L 316.96692 351.06753 Z" stroke="black" stroke-linecap="round" stroke-linejoin="round" stroke-width="1"/>
          <text transform="translate(321.96692 289.56753)" fill="black">
            <tspan font-family="Menlo" font-size="14" fill="black" x="10.969727" y="13" xml:space="preserve">start==1 </tspan>
            <tspan font-family="Menlo" font-size="14" fill="black" x="36.25586" y="29" xml:space="preserve">&amp;&amp; </tspan>
            <tspan font-family="Menlo" font-size="14" fill="black" x="2.5410156" y="45" xml:space="preserve">rand_ready</tspan>
          </text>
        </g>
        <g id="Graphic_42">
          <path d="M 273.3083 426.56377 L 453.1427 426.56377 C 474.4145 426.56377 491.6786 446.72717 491.6786 471.57135 C 491.6786 496.41554 474.4145 516.57894 453.1427 516.57894 L 273.3083 516.57894 C 252.03647 516.57894 234.77237 496.41554 234.77237 471.57135 C 234.77237 446.72717 252.03647 426.56377 273.3083 426.56377 Z" fill="white"/>
          <path d="M 273.3083 426.56377 L 453.1427 426.56377 C 474.4145 426.56377 491.6786 446.72717 491.6786 471.57135 C 491.6786 496.41554 474.4145 516.57894 453.1427 516.57894 L 273.3083 516.57894 C 252.03647 516.57894 234.77237 496.41554 234.77237 471.57135 C 234.77237 446.72717 252.03647 426.56377 273.3083 426.56377 Z" stroke="black" stroke-linecap="round" stroke-linejoin="round" stroke-width="1"/>
          <text transform="translate(265.463 433.57135)" fill="black">
            <tspan font-family="Menlo" font-size="16" fill="black" x="39.96562" y="15" xml:space="preserve">react_time=0</tspan>
            <tspan font-family="Menlo" font-size="16" fill="black" x="44.78203" y="34" xml:space="preserve">wait_time=0</tspan>
            <tspan font-family="Menlo" font-size="16" fill="black" x="39.96562" y="53" xml:space="preserve">tick_clear=1</tspan>
            <tspan font-family="Menlo" font-size="16" fill="black" x="6.250778" y="72" xml:space="preserve">rand_gen_generate=1</tspan>
          </text>
        </g>
      </g>
      <g id="Group_147">
        <title>e_wait</title>
        <g id="Graphic_69">
          <path d="M 775.2617 644.3147 L 1364.2617 644.3147 L 1364.2617 1251 L 775.2617 1251 Z" stroke="black" stroke-linecap="round" stroke-linejoin="round" stroke-dasharray="4.0,4.0" stroke-width="1"/>
          <text transform="translate(780.2617 649.3147)" fill="black">
            <tspan font-family="Menlo" font-size="16" fill="black" x="0" y="15" xml:space="preserve">e_wait</tspan>
          </text>
        </g>
        <g id="Graphic_72">
          <rect x="845.9851" y="682.0647" width="203.02448" height="59" fill="white"/>
          <rect x="845.9851" y="682.0647" width="203.02448" height="59" stroke="black" stroke-linecap="round" stroke-linejoin="round" stroke-width="1"/>
          <text transform="translate(850.9851 692.5647)" fill="black">
            <tspan font-family="Menlo" font-size="16" fill="black" x="43.53177" y="15" xml:space="preserve">disp=“0000”</tspan>
            <tspan font-family="Menlo" font-size="16" fill="black" x="72.43021" y="34" xml:space="preserve">led=0</tspan>
          </text>
        </g>
        <g id="Graphic_99">
          <path d="M 816.8734 977.7889 L 881.7552 954.7616 L 1011.5188 954.7616 L 1076.4006 977.7889 L 1011.5188 1000.8163 L 881.7552 1000.8163 Z" fill="white"/>
          <path d="M 816.8734 977.7889 L 881.7552 954.7616 L 1011.5188 954.7616 L 1076.4006 977.7889 L 1011.5188 1000.8163 L 881.7552 1000.8163 Z" stroke="black" stroke-linecap="round" stroke-linejoin="round" stroke-width="1"/>
          <text transform="translate(881.7552 969.7889)" fill="black">
            <tspan font-family="Menlo" font-size="14" fill="black" x="35.3813" y="13" xml:space="preserve">tick==1</tspan>
          </text>
        </g>
        <g id="Graphic_177">
          <path d="M 826.4764 887.747 L 886.5567 864.7196 L 1006.7173 864.7196 L 1066.7977 887.747 L 1006.7173 910.7743 L 886.5567 910.7743 Z" fill="white"/>
          <path d="M 826.4764 887.747 L 886.5567 864.7196 L 1006.7173 864.7196 L 1066.7977 887.747 L 1006.7173 910.7743 L 886.5567 910.7743 Z" stroke="black" stroke-linecap="round" stroke-linejoin="round" stroke-width="1"/>
          <text transform="translate(886.5567 879.747)" fill="black">
            <tspan font-family="Menlo" font-size="14" fill="black" x="30.579834" y="13" xml:space="preserve">stop==0</tspan>
          </text>
        </g>
        <g id="Graphic_180">
          <path d="M 1153.8375 864.7196 L 1296.9263 864.7196 C 1313.8517 864.7196 1327.5882 875.0359 1327.5882 887.747 C 1327.5882 900.4581 1313.8517 910.7743 1296.9263 910.7743 L 1153.8375 910.7743 C 1136.9121 910.7743 1123.1756 900.4581 1123.1756 887.747 C 1123.1756 875.0359 1136.9121 864.7196 1153.8375 864.7196 Z" fill="white"/>
          <path d="M 1153.8375 864.7196 L 1296.9263 864.7196 C 1313.8517 864.7196 1327.5882 875.0359 1327.5882 887.747 C 1327.5882 900.4581 1313.8517 910.7743 1296.9263 910.7743 L 1153.8375 910.7743 C 1136.9121 910.7743 1123.1756 900.4581 1123.1756 887.747 C 1123.1756 875.0359 1136.9121 864.7196 1153.8375 864.7196 Z" stroke="black" stroke-linecap="round" stroke-linejoin="round" stroke-width="1"/>
          <text transform="translate(1148.6169 878.247)" fill="black">
            <tspan font-family="Menlo" font-size="16" fill="black" x="4.518944" y="15" xml:space="preserve">react_time=9999</tspan>
          </text>
        </g>
        <g id="Line_181">
          <line x1="1066.7977" y1="887.747" x2="1113.2756" y2="887.747" marker-end="url(#FilledArrow_Marker)" stroke="black" stroke-linecap="round" stroke-linejoin="round" stroke-width="1"/>
        </g>
        <g id="Graphic_182">
          <rect x="1085.7569" y="873.523" width="19.184" height="28.447998" fill="white"/>
          <text transform="translate(1090.7569 878.523)" fill="black">
            <tspan font-family="Helvetica Neue" font-size="16" fill="black" x="552447e-18" y="15" xml:space="preserve">F</tspan>
          </text>
        </g>
        <g id="Line_183">
          <line x1="946.637" y1="910.7743" x2="946.637" y2="944.8616" marker-end="url(#FilledArrow_Marker)" stroke="black" stroke-linecap="round" stroke-linejoin="round" stroke-width="1"/>
        </g>
        <g id="Graphic_184">
          <path d="M 875.0926 1043.0704 L 1018.1814 1043.0704 C 1035.1068 1043.0704 1048.8433 1053.3866 1048.8433 1066.0977 C 1048.8433 1078.8088 1035.1068 1089.125 1018.1814 1089.125 L 875.0926 1089.125 C 858.1672 1089.125 844.4307 1078.8088 844.4307 1066.0977 C 844.4307 1053.3866 858.1672 1043.0704 875.0926 1043.0704 Z" fill="white"/>
          <path d="M 875.0926 1043.0704 L 1018.1814 1043.0704 C 1035.1068 1043.0704 1048.8433 1053.3866 1048.8433 1066.0977 C 1048.8433 1078.8088 1035.1068 1089.125 1018.1814 1089.125 L 875.0926 1089.125 C 858.1672 1089.125 844.4307 1078.8088 844.4307 1066.0977 C 844.4307 1053.3866 858.1672 1043.0704 875.0926 1043.0704 Z" stroke="black" stroke-linecap="round" stroke-linejoin="round" stroke-width="1"/>
          <text transform="translate(869.872 1056.5977)" fill="black">
            <tspan font-family="Menlo" font-size="16" fill="black" x="18.968163" y="15" xml:space="preserve">wait_time-=1</tspan>
          </text>
        </g>
        <g id="Line_185">
          <line x1="946.637" y1="1000.8163" x2="946.637" y2="1033.1704" marker-end="url(#FilledArrow_Marker)" stroke="black" stroke-linecap="round" stroke-linejoin="round" stroke-width="1"/>
        </g>
        <g id="Graphic_187">
          <rect x="937.045" y="915.9631" width="19.184" height="28.447998" fill="white"/>
          <text transform="translate(942.045 920.9631)" fill="black">
            <tspan font-family="Helvetica Neue" font-size="16" fill="black" x="552447e-18" y="15" xml:space="preserve">T</tspan>
          </text>
        </g>
        <g id="Graphic_188">
          <rect x="937.045" y="1004.4059" width="19.184" height="28.447998" fill="white"/>
          <text transform="translate(942.045 1009.4059)" fill="black">
            <tspan font-family="Helvetica Neue" font-size="16" fill="black" x="552447e-18" y="15" xml:space="preserve">T</tspan>
          </text>
        </g>
        <g id="Graphic_189">
          <path d="M 945.3798 1156.4083 L 1010.2616 1133.381 L 1140.0252 1133.381 L 1204.907 1156.4083 L 1140.0252 1179.4357 L 1010.2616 1179.4357 Z" fill="white"/>
          <path d="M 945.3798 1156.4083 L 1010.2616 1133.381 L 1140.0252 1133.381 L 1204.907 1156.4083 L 1140.0252 1179.4357 L 1010.2616 1179.4357 Z" stroke="black" stroke-linecap="round" stroke-linejoin="round" stroke-width="1"/>
          <text transform="translate(1010.2616 1148.4083)" fill="black">
            <tspan font-family="Menlo" font-size="14" fill="black" x="14.309525" y="13" xml:space="preserve">wait_time==0</tspan>
          </text>
        </g>
        <g id="Line_190">
          <path d="M 1076.4006 977.7889 L 1077.4395 977.7889 L 1077.4395 1016.2375 L 1075.3617 1016.2375 L 1075.1434 1118.481 L 1075.1434 1123.481" marker-end="url(#FilledArrow_Marker)" stroke="black" stroke-linecap="round" stroke-linejoin="round" stroke-width="1"/>
        </g>
        <g id="Line_192">
          <path d="M 946.637 1089.125 L 946.637 1118.5307 L 1065.2434 1118.5307" marker-end="url(#FilledArrow_Marker)" stroke="black" stroke-linecap="round" stroke-linejoin="round" stroke-width="1"/>
        </g>
        <g id="Graphic_193">
          <rect x="1065.7679" y="1002.8701" width="19.184" height="28.447998" fill="white"/>
          <text transform="translate(1070.7679 1007.8701)" fill="black">
            <tspan font-family="Helvetica Neue" font-size="16" fill="black" x="552447e-18" y="15" xml:space="preserve">F</tspan>
          </text>
        </g>
      </g>
      <g id="Group_148">
        <title>e_react</title>
        <g id="Graphic_7">
          <path d="M 130 645.7991 L 661 645.7991 L 661 1285 L 130 1285 Z" stroke="black" stroke-linecap="round" stroke-linejoin="round" stroke-dasharray="4.0,4.0" stroke-width="1"/>
          <text transform="translate(135 650.7991)" fill="black">
            <tspan font-family="Menlo" font-size="16" fill="black" x="0" y="15" xml:space="preserve">e_react</tspan>
          </text>
        </g>
        <g id="Graphic_93">
          <rect x="296.8164" y="690.2054" width="188" height="59" fill="white"/>
          <rect x="296.8164" y="690.2054" width="188" height="59" stroke="black" stroke-linecap="round" stroke-linejoin="round" stroke-width="1"/>
          <text transform="translate(301.8164 700.7054)" fill="black">
            <tspan font-family="Menlo" font-size="16" fill="black" x="16.753906" y="15" xml:space="preserve">disp=react_time</tspan>
            <tspan font-family="Menlo" font-size="16" fill="black" x="64.91797" y="34" xml:space="preserve">led=1</tspan>
          </text>
        </g>
        <g id="Graphic_96">
          <path d="M 322.29665 782.0257 L 459.33616 782.0257 C 475.546 782.0257 488.70177 793.39805 488.70177 807.4104 C 488.70177 821.4228 475.546 832.7952 459.33616 832.7952 L 322.29665 832.7952 C 306.08684 832.7952 292.93104 821.4228 292.93104 807.4104 C 292.93104 793.39805 306.08684 782.0257 322.29665 782.0257 Z" fill="white"/>
          <path d="M 322.29665 782.0257 L 459.33616 782.0257 C 475.546 782.0257 488.70177 793.39805 488.70177 807.4104 C 488.70177 821.4228 475.546 832.7952 459.33616 832.7952 L 322.29665 832.7952 C 306.08684 832.7952 292.93104 821.4228 292.93104 807.4104 C 292.93104 793.39805 306.08684 782.0257 322.29665 782.0257 Z" stroke="black" stroke-linecap="round" stroke-linejoin="round" stroke-width="1"/>
          <text transform="translate(312.5081 797.9104)" fill="black">
            <tspan font-family="Menlo" font-size="16" fill="black" x="34.960632" y="15" xml:space="preserve">tick_en=1</tspan>
          </text>
        </g>
        <g id="Graphic_108">
          <path d="M 270.65576 878.9436 L 330.7361 855.9163 L 450.89673 855.9163 L 510.97705 878.9436 L 450.89673 901.971 L 330.7361 901.971 Z" fill="white"/>
          <path d="M 270.65576 878.9436 L 330.7361 855.9163 L 450.89673 855.9163 L 510.97705 878.9436 L 450.89673 901.971 L 330.7361 901.971 Z" stroke="black" stroke-linecap="round" stroke-linejoin="round" stroke-width="1"/>
          <text transform="translate(330.7361 870.9436)" fill="black">
            <tspan font-family="Menlo" font-size="14" fill="black" x="30.579834" y="13" xml:space="preserve">tick==1</tspan>
          </text>
        </g>
      </g>
      <g id="Group_146">
        <title>e_waitrand</title>
        <g id="Graphic_2">
          <path d="M 714.6367 128 L 1167.1367 128 L 1167.1367 589.5 L 714.6367 589.5 Z" stroke="black" stroke-linecap="round" stroke-linejoin="round" stroke-dasharray="4.0,4.0" stroke-width="1"/>
          <text transform="translate(719.6367 133)" fill="black">
            <tspan font-family="Menlo" font-size="16" fill="black" x="0" y="15" xml:space="preserve">e_rand</tspan>
          </text>
        </g>
        <g id="Graphic_58">
          <path d="M 826.8433 341.24448 L 886.9236 304.7518 L 1007.0842 304.7518 L 1067.1646 341.24448 L 1007.0842 377.73717 L 886.9236 377.73717 Z" fill="white"/>
          <path d="M 826.8433 341.24448 L 886.9236 304.7518 L 1007.0842 304.7518 L 1067.1646 341.24448 L 1007.0842 377.73717 L 886.9236 377.73717 Z" stroke="black" stroke-linecap="round" stroke-linejoin="round" stroke-width="1"/>
          <text transform="translate(891.9236 333.24448)" fill="black">
            <tspan font-family="Menlo" font-size="14" fill="black" x="4.5080566" y="13" xml:space="preserve">rand_done==1</tspan>
          </text>
        </g>
        <g id="Graphic_64">
          <path d="M 862.8915 432 L 1031.1164 432 C 1051.015 432 1067.1646 457.0074 1067.1646 487.82006 C 1067.1646 518.6327 1051.015 543.6401 1031.1164 543.6401 L 862.8915 543.6401 C 842.9929 543.6401 826.8433 518.6327 826.8433 487.82006 C 826.8433 457.0074 842.9929 432 862.8915 432 Z" fill="white"/>
          <path d="M 862.8915 432 L 1031.1164 432 C 1051.015 432 1067.1646 457.0074 1067.1646 487.82006 C 1067.1646 518.6327 1051.015 543.6401 1031.1164 543.6401 L 862.8915 543.6401 C 842.9929 543.6401 826.8433 518.6327 826.8433 487.82006 C 826.8433 457.0074 842.9929 432 862.8915 432 Z" stroke="black" stroke-linecap="round" stroke-linejoin="round" stroke-width="1"/>
          <text transform="translate(855.8754 468.82006)" fill="black">
            <tspan font-family="Menlo" font-size="16" fill="black" x="4.4332047" y="15" xml:space="preserve">wait_time=rand_val</tspan>
            <tspan font-family="Menlo" font-size="16" fill="black" x="47.78086" y="34" xml:space="preserve">tick_en=1</tspan>
          </text>
        </g>
        <g id="Graphic_137">
          <rect x="853.1639" y="167.14197" width="188" height="93.50052" fill="white"/>
          <rect x="853.1639" y="167.14197" width="188" height="93.50052" stroke="black" stroke-linecap="round" stroke-linejoin="round" stroke-width="1"/>
          <text transform="translate(858.1639 194.89224)" fill="black">
            <tspan font-family="Menlo" font-size="16" fill="black" x="45.652344" y="15" xml:space="preserve">disp=“HI”</tspan>
            <tspan font-family="Menlo" font-size="16" fill="black" x="64.91797" y="34" xml:space="preserve">led=0</tspan>
          </text>
        </g>
        <g id="Graphic_54">
          <rect x="853.0039" y="166.88841" width="188" height="93.50052" fill="white"/>
          <rect x="853.0039" y="166.88841" width="188" height="93.50052" stroke="black" stroke-linecap="round" stroke-linejoin="round" stroke-width="1"/>
          <text transform="translate(858.0039 194.63867)" fill="black">
            <tspan font-family="Menlo" font-size="16" fill="black" x="45.652344" y="15" xml:space="preserve">disp=“HI”</tspan>
            <tspan font-family="Menlo" font-size="16" fill="black" x="64.91797" y="34" xml:space="preserve">led=0</tspan>
          </text>
        </g>
      </g>
      <g id="Group_149">
        <title>e_result</title>
        <g id="Graphic_139">
          <path d="M -236.93583 816.6632 L 66.99609 816.6632 L 66.99609 941.2241 L -236.93583 941.2241 Z" stroke="black" stroke-linecap="round" stroke-linejoin="round" stroke-dasharray="4.0,4.0" stroke-width="1"/>
          <text transform="translate(-231.93583 821.6632)" fill="black">
            <tspan font-family="Menlo" font-size="16" fill="black" x="0" y="15" xml:space="preserve">e_result</tspan>
          </text>
        </g>
        <g id="Graphic_138">
          <rect x="-178.96987" y="857.8588" width="188" height="42.16968" fill="white"/>
          <rect x="-178.96987" y="857.8588" width="188" height="42.16968" stroke="black" stroke-linecap="round" stroke-linejoin="round" stroke-width="1"/>
          <text transform="translate(-173.96987 859.9436)" fill="black">
            <tspan font-family="Menlo" font-size="16" fill="black" x="16.753906" y="15" xml:space="preserve">disp=react_time</tspan>
            <tspan font-family="Menlo" font-size="16" fill="black" x="64.91797" y="34" xml:space="preserve">led=0</tspan>
          </text>
        </g>
      </g>
      <g id="Line_30">
        <path d="M 287.1289 12.835938 L 177.15234 12.835938 L 177.15234 -108.9336 L 367.6289 -108.66406 L 366.5537 -108.66406 L 366.5537 -20.915625" marker-end="url(#FilledArrow_Marker)" stroke="black" stroke-linecap="round" stroke-linejoin="round" stroke-width="1"/>
      </g>
      <g id="Graphic_31">
        <rect x="257.59612" y="-1.3880615" width="19.184" height="28.447998" fill="white"/>
        <text transform="translate(262.59612 3.6119385)" fill="black">
          <tspan font-family="Helvetica Neue" font-size="16" fill="black" x="552447e-18" y="15" xml:space="preserve">F</tspan>
        </text>
      </g>
      <g id="Line_34">
        <path d="M 366.5537 35.039062 L 366.5537 45.03906 L 366.6519 113.8033 L 366.7501 177.66753 L 366.7501 182.66753" marker-end="url(#FilledArrow_Marker)" stroke="black" stroke-linecap="round" stroke-linejoin="round" stroke-width="1"/>
      </g>
      <g id="Graphic_35">
        <rect x="356.9991" y="56.990103" width="19.184" height="28.447998" fill="white"/>
        <text transform="translate(361.9991 61.9901)" fill="black">
          <tspan font-family="Helvetica Neue" font-size="16" fill="black" x="552447e-18" y="15" xml:space="preserve">T</tspan>
        </text>
      </g>
      <g id="Line_41">
        <path d="M 366.7501 251.56753 L 366.7501 261.56753 L 366.7008 263.81753 L 366.67183 266.16755" marker-end="url(#FilledArrow_Marker)" stroke="black" stroke-linecap="round" stroke-linejoin="round" stroke-width="1"/>
      </g>
      <g id="Line_59">
        <line x1="947.0039" y1="260.38894" x2="947.0039" y2="294.8518" marker-end="url(#FilledArrow_Marker)" stroke="black" stroke-linecap="round" stroke-linejoin="round" stroke-width="1"/>
      </g>
      <g id="Line_67">
        <line x1="947.0039" y1="377.73717" x2="947.0039" y2="422.1" marker-end="url(#FilledArrow_Marker)" stroke="black" stroke-linecap="round" stroke-linejoin="round" stroke-width="1"/>
      </g>
      <g id="Line_98">
        <line x1="390.8164" y1="749.2054" x2="390.8164" y2="772.1257" marker-end="url(#FilledArrow_Marker)" stroke="black" stroke-linecap="round" stroke-linejoin="round" stroke-width="1"/>
      </g>
      <g id="Line_109">
        <path d="M 390.8164 832.7952 L 390.8164 844.3558 L 390.8164 843.177 L 390.8164 846.0163" marker-end="url(#FilledArrow_Marker)" stroke="black" stroke-linecap="round" stroke-linejoin="round" stroke-width="1"/>
      </g>
      <g id="Line_150">
        <path d="M 947.0039 543.6401 L 947.0039 553.6401 L 947.2506 612.8524 L 947.4973 667.1647 L 947.4973 672.1647" marker-end="url(#FilledArrow_Marker)" stroke="black" stroke-linecap="round" stroke-linejoin="round" stroke-width="1"/>
      </g>
      <g id="Graphic_161">
        <rect x="937.4119" y="387.2168" width="19.184" height="28.447998" fill="white"/>
        <text transform="translate(942.4119 392.2168)" fill="black">
          <tspan font-family="Helvetica Neue" font-size="16" fill="black" x="552447e-18" y="15" xml:space="preserve">T</tspan>
        </text>
      </g>
      <g id="Line_162">
        <path d="M 267.28235 313.56753 L 100.96081 313.56753 L 100.96081 104.06413 L 356.738 104.06413" marker-end="url(#FilledArrow_Marker_2)" stroke="black" stroke-linecap="round" stroke-linejoin="round" stroke-width="1"/>
      </g>
      <g id="Line_164">
        <line x1="365.5145" y1="351.06753" x2="363.52552" y2="416.6683" marker-end="url(#FilledArrow_Marker)" stroke="black" stroke-linecap="round" stroke-linejoin="round" stroke-width="1"/>
      </g>
      <g id="Graphic_167">
        <rect x="354.92173" y="369.8514" width="19.184" height="28.447998" fill="white"/>
        <text transform="translate(359.92173 374.8514)" fill="black">
          <tspan font-family="Helvetica Neue" font-size="16" fill="black" x="552447e-18" y="15" xml:space="preserve">T</tspan>
        </text>
      </g>
      <g id="Graphic_168">
        <rect x="234.79168" y="299.34353" width="19.184" height="28.447998" fill="white"/>
        <text transform="translate(239.79168 304.34353)" fill="black">
          <tspan font-family="Helvetica Neue" font-size="16" fill="black" x="552447e-18" y="15" xml:space="preserve">F</tspan>
        </text>
      </g>
      <g id="Line_176">
        <path d="M 363.2255 516.57894 L 363.2255 553.3708 L 656.71085 553.3708 L 656.71085 97.56408 L 947.0039 97.56408 L 947.0039 156.98841" marker-end="url(#FilledArrow_Marker)" stroke="black" stroke-linecap="round" stroke-linejoin="round" stroke-width="1"/>
      </g>
      <g id="Line_194">
        <path d="M 1204.907 1156.4083 L 1428.9537 1156.4083 L 1428.9537 612.41115 L 957.1488 612.41115" marker-end="url(#FilledArrow_Marker)" stroke="black" stroke-linecap="round" stroke-linejoin="round" stroke-width="1"/>
      </g>
      <g id="Graphic_195">
        <rect x="1232.0216" y="1142.1844" width="19.184" height="28.447998" fill="white"/>
        <text transform="translate(1237.0216 1147.1844)" fill="black">
          <tspan font-family="Helvetica Neue" font-size="16" fill="black" x="552447e-18" y="15" xml:space="preserve">F</tspan>
        </text>
      </g>
      <g id="Line_198">
        <path d="M 1075.1434 1179.4357 L 1075.1434 1189.4357 L 1075.3086 1282.0988 L 691.96846 1282.0988 L 691.96846 606.8268 L 390.35485 606.8268 L 390.8164 675.3054 L 390.8164 680.3054" marker-end="url(#FilledArrow_Marker)" stroke="black" stroke-linecap="round" stroke-linejoin="round" stroke-width="1"/>
      </g>
      <g id="Graphic_199">
        <rect x="1065.5857" y="1194.4198" width="19.184" height="28.447998" fill="white"/>
        <text transform="translate(1070.5857 1199.4198)" fill="black">
          <tspan font-family="Helvetica Neue" font-size="16" fill="black" x="552447e-18" y="15" xml:space="preserve">T</tspan>
        </text>
      </g>
      <g id="Graphic_218">
        <path d="M 875.4595 776.5898 L 1018.5483 776.5898 C 1035.4737 776.5898 1049.2102 786.9061 1049.2102 799.6172 C 1049.2102 812.3283 1035.4737 822.6445 1018.5483 822.6445 L 875.4595 822.6445 C 858.5341 822.6445 844.7976 812.3283 844.7976 799.6172 C 844.7976 786.9061 858.5341 776.5898 875.4595 776.5898 Z" fill="white"/>
        <path d="M 875.4595 776.5898 L 1018.5483 776.5898 C 1035.4737 776.5898 1049.2102 786.9061 1049.2102 799.6172 C 1049.2102 812.3283 1035.4737 822.6445 1018.5483 822.6445 L 875.4595 822.6445 C 858.5341 822.6445 844.7976 812.3283 844.7976 799.6172 C 844.7976 786.9061 858.5341 776.5898 875.4595 776.5898 Z" stroke="black" stroke-linecap="round" stroke-linejoin="round" stroke-width="1"/>
        <text transform="translate(870.2389 790.1172)" fill="black">
          <tspan font-family="Menlo" font-size="16" fill="black" x="33.41738" y="15" xml:space="preserve">tick_en=1</tspan>
        </text>
      </g>
      <g id="Line_219">
        <path d="M 947.4973 741.0647 L 947.4973 751.0647 L 947.2506 758.8273 L 947.0039 761.6898 L 947.0039 766.6898" marker-end="url(#FilledArrow_Marker)" stroke="black" stroke-linecap="round" stroke-linejoin="round" stroke-width="1"/>
      </g>
      <g id="Line_220">
        <path d="M 947.0039 822.6445 L 947.0039 832.6445 L 946.8205 843.6821 L 946.637 849.8196 L 946.637 854.8196" marker-end="url(#FilledArrow_Marker)" stroke="black" stroke-linecap="round" stroke-linejoin="round" stroke-width="1"/>
      </g>
      <g id="Graphic_221">
        <path d="M 319.31405 954.955 L 462.40287 954.955 C 479.32824 954.955 493.06476 965.2712 493.06476 977.9823 C 493.06476 990.6934 479.32824 1001.0097 462.40287 1001.0097 L 319.31405 1001.0097 C 302.3887 1001.0097 288.65216 990.6934 288.65216 977.9823 C 288.65216 965.2712 302.3887 954.955 319.31405 954.955 Z" fill="white"/>
        <path d="M 319.31405 954.955 L 462.40287 954.955 C 479.32824 954.955 493.06476 965.2712 493.06476 977.9823 C 493.06476 990.6934 479.32824 1001.0097 462.40287 1001.0097 L 319.31405 1001.0097 C 302.3887 1001.0097 288.65216 990.6934 288.65216 977.9823 C 288.65216 965.2712 302.3887 954.955 319.31405 954.955 Z" stroke="black" stroke-linecap="round" stroke-linejoin="round" stroke-width="1"/>
        <text transform="translate(314.09342 968.4823)" fill="black">
          <tspan font-family="Menlo" font-size="16" fill="black" x="14.151756" y="15" xml:space="preserve">react_time+=1</tspan>
        </text>
      </g>
      <g id="Line_222">
        <path d="M 390.8164 901.971 L 390.8164 911.971 L 390.83743 928.463 L 390.85846 940.055 L 390.85846 945.055" marker-end="url(#FilledArrow_Marker)" stroke="black" stroke-linecap="round" stroke-linejoin="round" stroke-width="1"/>
      </g>
      <g id="Graphic_223">
        <path d="M 299.42314 1054.1223 L 345.1285 1031.0949 L 436.53925 1031.0949 L 482.2446 1054.1223 L 436.53925 1077.1496 L 345.1285 1077.1496 Z" fill="white"/>
        <path d="M 299.42314 1054.1223 L 345.1285 1031.0949 L 436.53925 1031.0949 L 482.2446 1054.1223 L 436.53925 1077.1496 L 345.1285 1077.1496 Z" stroke="black" stroke-linecap="round" stroke-linejoin="round" stroke-width="1"/>
        <text transform="translate(345.1285 1046.1223)" fill="black">
          <tspan font-family="Menlo" font-size="14" fill="black" x="7.776169" y="13" xml:space="preserve">i_stop==1</tspan>
        </text>
      </g>
      <g id="Line_226">
        <path d="M 510.97705 878.9436 L 520.97705 878.9436 L 601.47275 878.626 L 677.06846 878.3083 L 682.06846 878.3083" marker-end="url(#FilledArrow_Marker)" stroke="black" stroke-linecap="round" stroke-linejoin="round" stroke-width="1"/>
      </g>
      <g id="Graphic_227">
        <rect x="586.4583" y="864.4234" width="19.184" height="28.447998" fill="white"/>
        <text transform="translate(591.4583 869.4234)" fill="black">
          <tspan font-family="Helvetica Neue" font-size="16" fill="black" x="552447e-18" y="15" xml:space="preserve">F</tspan>
        </text>
      </g>
      <g id="Graphic_228">
        <rect x="381.2419" y="911.4508" width="19.184" height="28.447998" fill="white"/>
        <text transform="translate(386.2419 916.4508)" fill="black">
          <tspan font-family="Helvetica Neue" font-size="16" fill="black" x="552447e-18" y="15" xml:space="preserve">T</tspan>
        </text>
      </g>
      <g id="Line_233">
        <path d="M 390.85846 1001.0097 L 390.85846 1011.0097 L 390.84617 1016.0523 L 390.8339 1016.1949 L 390.8339 1021.1949" marker-end="url(#FilledArrow_Marker)" stroke="black" stroke-linecap="round" stroke-linejoin="round" stroke-width="1"/>
      </g>
      <g id="Graphic_235">
        <path d="M 191.28425 1137.3834 L 236.98962 1114.3561 L 328.40036 1114.3561 L 374.10573 1137.3834 L 328.40036 1160.4108 L 236.98962 1160.4108 Z" fill="white"/>
        <path d="M 191.28425 1137.3834 L 236.98962 1114.3561 L 328.40036 1114.3561 L 374.10573 1137.3834 L 328.40036 1160.4108 L 236.98962 1160.4108 Z" stroke="black" stroke-linecap="round" stroke-linejoin="round" stroke-width="1"/>
        <text transform="translate(236.98962 1121.3834)" fill="black">
          <tspan font-family="Menlo" font-size="14" fill="black" x="3.5618134" y="13" xml:space="preserve">react_time</tspan>
          <tspan font-family="Menlo" font-size="14" fill="black" x="28.847946" y="29" xml:space="preserve">&gt;MAX</tspan>
        </text>
      </g>
      <g id="Graphic_236">
        <path d="M 418.9286 1137.3834 L 464.634 1114.3561 L 556.0447 1114.3561 L 601.7501 1137.3834 L 556.0447 1160.4108 L 464.634 1160.4108 Z" fill="white"/>
        <path d="M 418.9286 1137.3834 L 464.634 1114.3561 L 556.0447 1114.3561 L 601.7501 1137.3834 L 556.0447 1160.4108 L 464.634 1160.4108 Z" stroke="black" stroke-linecap="round" stroke-linejoin="round" stroke-width="1"/>
        <text transform="translate(464.634 1121.3834)" fill="black">
          <tspan font-family="Menlo" font-size="14" fill="black" x="3.5618134" y="13" xml:space="preserve">react_time</tspan>
          <tspan font-family="Menlo" font-size="14" fill="black" x="28.847946" y="29" xml:space="preserve">&gt;MAX</tspan>
        </text>
      </g>
      <g id="Line_238">
        <path d="M 482.2446 1054.1223 L 510.33936 1054.1223 L 510.33936 1104.4561" marker-end="url(#FilledArrow_Marker)" stroke="black" stroke-linecap="round" stroke-linejoin="round" stroke-width="1"/>
      </g>
      <g id="Line_239">
        <path d="M 390.8339 1077.1496 L 390.8339 1095.7529 L 282.695 1095.7529 L 282.695 1104.4561" marker-end="url(#FilledArrow_Marker)" stroke="black" stroke-linecap="round" stroke-linejoin="round" stroke-width="1"/>
      </g>
      <g id="Line_240">
        <path d="M 601.7501 1137.3834 L 602.3463 1137.3834 L 646.8593 1136.9474 L 677.06846 1136.5114 L 682.06846 1136.5114" marker-end="url(#FilledArrow_Marker)" stroke="black" stroke-linecap="round" stroke-linejoin="round" stroke-width="1"/>
      </g>
      <g id="Graphic_241">
        <path d="M 322.3387 1222.8872 L 459.3782 1222.8872 C 475.58803 1222.8872 488.7438 1234.2595 488.7438 1248.272 C 488.7438 1262.2843 475.58803 1273.6567 459.3782 1273.6567 L 322.3387 1273.6567 C 306.1289 1273.6567 292.9731 1262.2843 292.9731 1248.272 C 292.9731 1234.2595 306.1289 1222.8872 322.3387 1222.8872 Z" fill="white"/>
        <path d="M 322.3387 1222.8872 L 459.3782 1222.8872 C 475.58803 1222.8872 488.7438 1234.2595 488.7438 1248.272 C 488.7438 1262.2843 475.58803 1273.6567 459.3782 1273.6567 L 322.3387 1273.6567 C 306.1289 1273.6567 292.9731 1262.2843 292.9731 1248.272 C 292.9731 1234.2595 306.1289 1222.8872 322.3387 1222.8872 Z" stroke="black" stroke-linecap="round" stroke-linejoin="round" stroke-width="1"/>
        <text transform="translate(312.55017 1238.772)" fill="black">
          <tspan font-family="Menlo" font-size="16" fill="black" x="6.062195" y="15" xml:space="preserve">react_time=1000</tspan>
        </text>
      </g>
      <g id="Line_242">
        <path d="M 282.695 1160.4108 L 282.695 1191.649 L 390.85846 1191.649 L 390.85846 1212.9872" marker-end="url(#FilledArrow_Marker)" stroke="black" stroke-linecap="round" stroke-linejoin="round" stroke-width="1"/>
      </g>
      <g id="Line_243">
        <path d="M 510.33936 1160.4108 L 510.33936 1191.649 L 390.85846 1191.649 L 390.85846 1212.9872" marker-end="url(#FilledArrow_Marker)" stroke="black" stroke-linecap="round" stroke-linejoin="round" stroke-width="1"/>
      </g>
      <g id="Line_244">
        <path d="M 292.9731 1248.272 L -84.39429 1248.272 L -84.39429 1229.6537 L -84.96987 1229.6537 L -84.96987 909.9285" marker-end="url(#FilledArrow_Marker)" stroke="black" stroke-linecap="round" stroke-linejoin="round" stroke-width="1"/>
      </g>
      <g id="Graphic_245">
        <rect x="313.98815" y="1177.425" width="19.184" height="28.447998" fill="white"/>
        <text transform="translate(318.98815 1182.425)" fill="black">
          <tspan font-family="Helvetica Neue" font-size="16" fill="black" x="552447e-18" y="15" xml:space="preserve">T</tspan>
        </text>
      </g>
      <g id="Graphic_246">
        <rect x="439.5616" y="1177.425" width="19.184" height="28.447998" fill="white"/>
        <text transform="translate(444.5616 1182.425)" fill="black">
          <tspan font-family="Helvetica Neue" font-size="16" fill="black" x="552447e-18" y="15" xml:space="preserve">T</tspan>
        </text>
      </g>
      <g id="Graphic_247">
        <rect x="652.1295" y="1122.5089" width="19.184" height="28.447998" fill="white"/>
        <text transform="translate(657.1295 1127.5089)" fill="black">
          <tspan font-family="Helvetica Neue" font-size="16" fill="black" x="552447e-18" y="15" xml:space="preserve">F</tspan>
        </text>
      </g>
      <g id="Line_248">
        <path d="M 191.28425 1137.3834 L 181.28425 1137.3834 L -70.06987 1136.7863 L -75.06987 1136.7863" marker-end="url(#FilledArrow_Marker)" stroke="black" stroke-linecap="round" stroke-linejoin="round" stroke-width="1"/>
      </g>
      <g id="Graphic_249">
        <rect x="153.58012" y="1123.1164" width="19.184" height="28.447998" fill="white"/>
        <text transform="translate(158.58012 1128.1164)" fill="black">
          <tspan font-family="Helvetica Neue" font-size="16" fill="black" x="552447e-18" y="15" xml:space="preserve">F</tspan>
        </text>
      </g>
      <g id="Graphic_250">
        <rect x="500.74736" y="1058.6684" width="19.184" height="28.447998" fill="white"/>
        <text transform="translate(505.74736 1063.6684)" fill="black">
          <tspan font-family="Helvetica Neue" font-size="16" fill="black" x="552447e-18" y="15" xml:space="preserve">F</tspan>
        </text>
      </g>
      <g id="Graphic_251">
        <rect x="344.09496" y="1081.5289" width="19.184" height="28.447998" fill="white"/>
        <text transform="translate(349.09496 1086.5289)" fill="black">
          <tspan font-family="Helvetica Neue" font-size="16" fill="black" x="552447e-18" y="15" xml:space="preserve">T</tspan>
        </text>
      </g>
      <g id="Line_252">
        <path d="M 1327.5882 887.747 L 1478.523 887.747 L 1478.523 1322.3614 L -10.716392 1322.3614 L -8.298939 1322.3614 L -8.298939 1258.172" marker-end="url(#FilledArrow_Marker)" stroke="black" stroke-linecap="round" stroke-linejoin="round" stroke-width="1"/>
      </g>
    </g>
  </g>
</svg>
